<svg width="32" height="32" viewBox="0 0 32 32" fill="none" xmlns="http://www.w3.org/2000/svg">
<g clip-path="url(#clip0_344_1222)">
<path d="M8 6.10352e-05H32V24.0001V32H0V6.10352e-05H8Z" fill="url(#paint0_linear_344_1222)"/>
<path d="M21.274 11.9341C21.5893 12.3414 21.852 12.788 22.0753 13.2609L16.0063 17.7403L13.4579 16.1377V14.2198L15.9932 15.8093L21.274 11.9341Z" fill="white"/>
<path d="M10.8695 16.0062C10.8695 15.9143 10.8695 15.8354 10.8826 15.7435L9.34566 15.6647C9.34566 15.7698 9.33252 15.888 9.33252 15.9931C9.33252 17.8321 10.0813 19.5004 11.2898 20.709L12.3802 19.6187C11.4475 18.6991 10.8695 17.4249 10.8695 16.0062Z" fill="white"/>
<path d="M15.993 10.8834C16.0849 10.8834 16.1638 10.8834 16.2557 10.8965L16.3345 9.35957C16.2294 9.35957 16.1112 9.34644 16.0061 9.34644C14.167 9.34644 12.4987 10.0952 11.2902 11.3037L12.3805 12.394C13.3 11.4614 14.5874 10.8834 15.993 10.8834Z" fill="white"/>
<path d="M15.9921 21.1294C15.9002 21.1294 15.8213 21.1294 15.7294 21.1162L15.6506 22.6532C15.7557 22.6532 15.8739 22.6663 15.979 22.6663C17.8181 22.6663 19.4864 21.9175 20.6949 20.709L19.6046 19.6187C18.6851 20.5645 17.4108 21.1294 15.9921 21.1294Z" fill="white"/>
<path d="M18.8825 11.7766L20.183 10.8176C19.0401 9.89811 17.582 9.33325 15.9925 9.33325V10.8702C17.0697 10.8833 18.068 11.2117 18.8825 11.7766Z" fill="white"/>
<path d="M22.6655 16.0066C22.6655 15.5994 22.6261 15.2053 22.5604 14.8112L21.1286 15.8752C21.1286 15.9147 21.1286 15.9672 21.1286 16.0066C21.1286 17.5173 20.4717 18.8703 19.434 19.803L20.4717 20.9458C21.8116 19.7373 22.6655 17.9639 22.6655 16.0066Z" fill="white"/>
<path d="M15.9929 21.1297C14.4822 21.1297 13.1291 20.4729 12.1965 19.4351L11.0536 20.4729C12.2753 21.8259 14.0355 22.6666 15.9929 22.6666V21.1297Z" fill="white"/>
<path d="M12.5641 12.2102L11.5263 11.0673C10.1732 12.289 9.33252 14.0492 9.33252 16.0065H10.8695C10.8695 14.509 11.5263 13.1428 12.5641 12.2102Z" fill="white"/>
</g>
<defs>
<linearGradient id="paint0_linear_344_1222" x1="2.69339" y1="24.9186" x2="29.3079" y2="7.19053" gradientUnits="userSpaceOnUse">
<stop offset="0.0698" stop-color="#A3CD39"/>
<stop offset="0.2599" stop-color="#81C55F"/>
<stop offset="0.9216" stop-color="#0FA8E0"/>
</linearGradient>
<clipPath id="clip0_344_1222">
<rect width="32" height="32" rx="5.33333" fill="white"/>
</clipPath>
</defs>
</svg>
