<svg width="23" height="12" viewBox="0 0 23 12" fill="none" xmlns="http://www.w3.org/2000/svg">
<path fill-rule="evenodd" clip-rule="evenodd" d="M7.79749 0.513654C6.62823 0.557074 6.32707 0.679397 3.29736 2.34122L1.81199 3.15598L1.38595 3.15635C1.15164 3.15655 0.90884 3.16571 0.8464 3.17669L0.732896 3.19666L0.697185 3.46568C0.677574 3.61363 0.613363 4.03778 0.554497 4.40818C0.439035 5.13514 0.423122 5.18028 0.130007 5.61329L0 5.80533L0.0538925 6.29121C0.248142 8.04236 0.271763 8.21759 0.326619 8.31356C0.357513 8.36763 0.610037 8.61697 0.887736 8.86764C1.7847 9.67724 1.94365 9.83938 2.13059 10.1356C2.56841 10.8293 3.23132 11.3242 3.8853 11.4457C4.29223 11.5214 4.88807 11.4909 5.21786 11.3777C5.56281 11.2592 5.94836 11.0178 6.21422 10.7536L6.43892 10.5304H11.9625H17.486L17.6611 10.6891C18.0799 11.0683 18.302 11.2092 18.7115 11.3551C19.3751 11.5917 20.096 11.537 20.7267 11.2023C21.0835 11.013 21.4556 10.6885 21.6677 10.3816C21.7432 10.2725 21.8215 10.1731 21.8417 10.1608C21.862 10.1485 22.0507 10.1277 22.2611 10.1146C22.493 10.1002 22.6482 10.0764 22.6554 10.0543C22.6891 9.94983 23.0126 7.2277 22.9996 7.15736C22.9913 7.11189 22.8332 6.73242 22.6484 6.3141C22.3275 5.58793 22.3025 5.54289 22.0945 5.31865C21.8507 5.05578 21.6173 4.91973 21.2551 4.82942C21.1354 4.79959 20.4339 4.66609 19.6962 4.53279L18.3548 4.29039L17.7692 3.82937C16.5881 2.89947 15.2173 1.93626 14.0912 1.24498C13.0926 0.631975 12.8562 0.549038 12.0399 0.525162C11.1139 0.498078 8.41384 0.490737 7.79749 0.513654ZM9.91363 1.6101C9.94086 1.6391 10.0367 2.60016 10.0687 3.16425L10.0907 3.55282H9.99926C9.87441 3.55282 7.55236 3.40377 6.35227 3.31872C5.73151 3.27474 5.36042 3.23528 5.33817 3.21091C5.28614 3.15393 5.11166 2.64917 5.13195 2.61424C5.15212 2.57955 6.02363 2.13193 6.41443 1.95554C6.73798 1.8095 7.32915 1.64409 7.66907 1.60451C7.96955 1.56949 9.88 1.57425 9.91363 1.6101ZM12.4284 1.66463C12.9357 1.80474 13.9566 2.4108 15.4169 3.43869C16.0243 3.86621 16.1061 3.93324 16.0689 3.97276C16.0519 3.99088 14.7151 3.90375 12.403 3.7338C11.7908 3.6888 11.2628 3.63658 11.2297 3.61776C11.1967 3.59895 11.1696 3.56548 11.1695 3.54339C11.1694 3.5213 11.1426 3.21303 11.11 2.85836C11.0774 2.50369 11.0411 2.06629 11.0293 1.88636L11.0078 1.5592L11.5938 1.57756C12.0433 1.59164 12.2377 1.61192 12.4284 1.66463ZM4.93767 7.22615C5.95768 7.6322 6.23976 8.9391 5.48835 9.7773C5.1846 10.1161 4.85201 10.2659 4.40316 10.2659C3.70905 10.2659 3.08754 9.73875 2.965 9.04608C2.82846 8.27428 3.14346 7.59358 3.78784 7.26798C4.15312 7.08342 4.54342 7.0692 4.93767 7.22615ZM20.0057 7.19079C20.372 7.31117 20.7424 7.67046 20.9257 8.0833C20.9988 8.24792 21.0064 8.30281 21.006 8.66201C21.0056 8.98556 20.9933 9.09353 20.9392 9.24664C20.7871 9.6774 20.4832 10.0103 20.0966 10.1698C19.8306 10.2795 19.3834 10.2952 19.1032 10.2047C18.4228 9.98475 18.0493 9.40299 18.0744 8.60206C18.0837 8.30503 18.0967 8.23889 18.1839 8.04286C18.2919 7.80043 18.5045 7.53683 18.7188 7.37995C19.0619 7.12869 19.5834 7.05204 20.0057 7.19079Z" fill="white"/>
</svg>
