<svg width="19" height="19" viewBox="0 0 19 19" fill="none" xmlns="http://www.w3.org/2000/svg">
<path d="M9.95395 0.466431C4.98595 0.466431 0.962952 4.49843 0.962952 9.46643C0.962952 14.4344 4.98595 18.4664 9.95395 18.4664C14.931 18.4664 18.963 14.4344 18.963 9.46643C18.963 4.49843 14.931 0.466431 9.95395 0.466431ZM6.81295 5.86643C7.55995 5.86643 8.16295 6.46943 8.16295 7.21643C8.16295 7.96343 7.55995 8.56643 6.81295 8.56643C6.06595 8.56643 5.46295 7.96343 5.46295 7.21643C5.46295 6.46943 6.06595 5.86643 6.81295 5.86643ZM9.96295 14.8664C7.91095 14.8664 6.16495 13.3724 5.46295 11.2664H14.463C13.761 13.3724 12.015 14.8664 9.96295 14.8664ZM13.113 8.56643C12.366 8.56643 11.763 7.96343 11.763 7.21643C11.763 6.46943 12.366 5.86643 13.113 5.86643C13.86 5.86643 14.463 6.46943 14.463 7.21643C14.463 7.96343 13.86 8.56643 13.113 8.56643Z" fill="#83C5FF"/>
</svg>
