<svg width="12" height="8" viewBox="0 0 12 8" fill="none" xmlns="http://www.w3.org/2000/svg">
<path d="M3.27273 5.75C3.72727 5.75 4.11364 5.57986 4.43182 5.23958C4.75 4.89931 4.90909 4.48611 4.90909 4C4.90909 3.51389 4.75 3.10069 4.43182 2.76042C4.11364 2.42014 3.72727 2.25 3.27273 2.25C2.81818 2.25 2.43182 2.42014 2.11364 2.76042C1.79545 3.10069 1.63636 3.51389 1.63636 4C1.63636 4.48611 1.79545 4.89931 2.11364 5.23958C2.43182 5.57986 2.81818 5.75 3.27273 5.75ZM3.27273 7.5C2.36364 7.5 1.59091 7.15972 0.954545 6.47917C0.318182 5.79861 0 4.97222 0 4C0 3.02778 0.318182 2.20139 0.954545 1.52083C1.59091 0.840278 2.36364 0.5 3.27273 0.5C4.00909 0.5 4.65227 0.723611 5.20227 1.17083C5.75227 1.61806 6.13636 2.17222 6.35455 2.83333H10.9227L12 3.98542L10.0909 6.31875L8.72727 5.16667L7.63636 6.33333L6.54545 5.16667H6.35455C6.12727 5.86667 5.73182 6.43056 5.16818 6.85833C4.60455 7.28611 3.97273 7.5 3.27273 7.5Z" fill="white"/>
</svg>
