<svg width="72" height="33" viewBox="0 0 72 33" fill="none" xmlns="http://www.w3.org/2000/svg">
<path fill-rule="evenodd" clip-rule="evenodd" d="M5.50341 0.185767C3.49556 0.738924 1.67461 2.27246 0.804733 4.14265C0.0922095 5.67477 0 6.21208 0 8.8342V11.1152H2.00908H4.01827L4.05983 9.0163C4.0997 7.00469 4.11442 6.88951 4.41385 6.24554C4.98474 5.01779 6.02803 4.3283 7.30325 4.3361C8.57476 4.34379 9.6203 5.02631 10.1687 6.20652C10.437 6.78392 10.4679 7.00256 10.523 8.7111C10.6084 11.3667 10.3971 12.3484 9.54673 13.2436C8.98763 13.8322 8.38495 14.1044 7.46891 14.1821L6.68271 14.2487L6.65216 16.3903L6.62161 18.5319L7.32605 18.5914C8.68045 18.7059 9.73059 19.4361 10.2199 20.6036C10.4336 21.1132 10.455 21.3859 10.455 23.5902C10.455 25.73 10.4294 26.0769 10.2381 26.5322C9.30065 28.7636 6.44225 29.2733 4.94363 27.4763C4.21629 26.6042 4.11487 26.187 4.0641 23.8562L4.01827 21.7574H2.00908H0V24.0383C0 26.6441 0.0936702 27.2007 0.781596 28.6807C2.83089 33.0895 8.29454 34.2974 11.9621 31.1524L12.5929 30.6114L13.0073 31.0031C15.6596 33.5104 19.7654 33.5711 22.4672 31.1432C24.3489 29.4521 25.2653 27.1481 25.1269 24.4552C25.0788 23.5173 25.0148 23.2069 24.7737 22.7406C24.6117 22.4275 22.3004 19.1382 19.6374 15.4312C16.9744 11.7241 14.7457 8.54142 14.6848 8.35837C14.546 7.94155 14.6648 6.94982 14.9291 6.32016C15.8637 4.09299 18.6074 3.64566 20.1627 5.46689C20.8771 6.30349 21.0028 6.85109 21.0028 9.1265V10.9969H23.0806H25.1584V9.04089C25.1584 6.65988 24.986 5.6361 24.3529 4.25687C23.9775 3.43908 23.7113 3.06389 22.9245 2.24361C21.87 1.14427 20.8771 0.532699 19.5827 0.185291C18.7141 -0.0478915 17.0126 -0.0515557 16.0886 0.177842C15.1853 0.402038 13.9951 1.03537 13.2075 1.71055L12.5866 2.24314L11.8424 1.65013C10.8999 0.899027 10.2292 0.541807 9.19395 0.239806C8.20794 -0.0478881 6.44494 -0.0736659 5.50341 0.185767ZM31.8966 0.110441C31.0181 0.39175 30.2146 1.15645 29.776 2.12844L29.4826 2.77879L29.449 9.0163L29.4154 15.2538H30.4317H31.4481L31.4483 9.25279C31.4484 3.77265 31.4655 3.21678 31.6448 2.84797C31.8588 2.40773 32.4584 2.01019 32.9081 2.01019C33.3493 2.01019 33.9368 2.40111 34.163 2.84525C34.3541 3.22021 34.3682 3.66316 34.3682 9.25551V15.263L35.351 15.2289L36.3337 15.1947V8.98673V2.77879L36.0662 2.15564C35.7303 1.37308 34.7919 0.448389 34.0714 0.189902C33.5245 -0.00626854 32.3905 -0.0476545 31.8966 0.110441ZM37.9623 1.0051V2.01019H39.1407H40.319L40.3481 8.60243L40.3771 15.1947L41.3598 15.2289L42.3426 15.263V8.63661V2.01019H43.578H44.8135V1.0051V0H41.3879H37.9623V1.0051ZM17.4643 19.4811L21.0163 24.4179L20.9716 25.2456C20.8945 26.6733 20.2856 27.6768 19.1337 28.2737C18.7083 28.4942 18.4147 28.5548 17.8018 28.5484C16.5073 28.5351 15.4631 27.8097 14.9196 26.5463C14.6866 26.0044 14.6592 25.7183 14.5914 23.1172C14.5471 21.4114 14.4618 20.0906 14.3778 19.8063C14.1424 19.0091 13.5083 17.7857 12.97 17.0898L12.458 16.4281L12.9549 15.7523C13.2282 15.3806 13.5099 14.9568 13.581 14.8104C13.6521 14.664 13.7557 14.5443 13.8113 14.5443C13.8669 14.5443 15.5107 16.7659 17.4643 19.4811ZM31.6989 17.816C31.0206 18.0687 30.0739 19.0201 29.7501 19.7744C29.4864 20.3888 29.482 20.4594 29.4443 24.7726C29.4177 27.7922 29.4473 29.3962 29.5393 29.9496C29.779 31.3903 30.7252 32.446 32.1122 32.82C32.9214 33.0383 33.4825 32.9785 34.3121 32.5853C35.1229 32.201 35.5446 31.7777 35.9341 30.9569L36.2776 30.2334V27.2369V24.2405H34.5367H32.7958V25.2456V26.2507H33.582H34.3682V27.91C34.3682 29.8044 34.2541 30.2498 33.673 30.6228C32.9726 31.0723 32.1655 30.884 31.7041 30.1633C31.4488 29.7644 31.4481 29.7486 31.4481 25.3347C31.4481 20.2583 31.4502 20.2445 32.3091 19.8445C32.7068 19.6593 32.87 19.6409 33.2231 19.7409C34.0467 19.9744 34.3682 20.5925 34.3682 21.9424V22.8216H35.3229H36.2776V21.6602C36.2776 20.103 36.0837 19.5256 35.2751 18.6742C34.8491 18.2257 34.4721 17.9517 34.0955 17.8169C33.4212 17.5755 32.3454 17.575 31.6989 17.816ZM38.4116 25.3003V33L39.3943 32.9658L40.3771 32.9317L40.4069 29.5912L40.4367 26.2507L41.1931 26.2533C42.1269 26.2565 42.8152 26.5543 43.0652 27.0633C43.2102 27.3587 43.2411 27.9097 43.2411 30.2061V32.9908H44.2519H45.2627V30.2769C45.2627 27.2329 45.1781 26.6085 44.6571 25.8127L44.2955 25.2603L44.6587 24.6921C45.1403 23.9385 45.3015 23.0564 45.2376 21.5231C45.1775 20.0818 44.9532 19.4492 44.2341 18.6921C43.3706 17.7829 43.0233 17.6829 40.5736 17.6393L38.4116 17.6006V25.3003ZM49.8676 17.7223C48.8574 18.0723 48.0204 18.841 47.5988 19.8063C47.3458 20.3855 47.3399 20.4896 47.3063 24.9219C47.2683 29.943 47.3157 30.4111 47.961 31.3986C48.6177 32.4036 50.0713 33.1054 51.1391 32.933C51.8824 32.813 52.9579 32.2105 53.3434 31.698C54.1443 30.6333 54.1304 30.7454 54.1331 25.3554C54.1359 19.9075 54.1248 19.8159 53.3528 18.8925C52.7013 18.1132 51.9046 17.7065 50.9421 17.6619C50.5056 17.6416 50.0221 17.6687 49.8676 17.7223ZM56.2696 23.746C56.2696 30.7953 56.2562 30.6762 57.1683 31.727C57.8976 32.567 58.6263 32.9081 59.6951 32.9098C61.0444 32.9118 62.1463 32.1807 62.7523 30.8814L63.0646 30.212L63.0964 23.9154L63.1283 17.6187H62.1136H61.0991V23.7693V29.9198L60.7339 30.3392C60.0267 31.1518 58.8632 30.9751 58.4085 29.9863C58.1867 29.5037 58.1789 29.288 58.1789 23.5528V17.6187H57.2242H56.2696V23.746ZM65.1424 25.2959V32.9908H66.1532H67.1641V29.6335V26.2763L68.4276 26.2286C69.4442 26.1903 69.7814 26.1312 70.1531 25.9261C70.7804 25.58 71.5972 24.5954 71.8148 23.9232C72.0609 23.163 72.062 20.7102 71.8167 19.9522C71.585 19.2363 70.9291 18.4653 70.1803 18.0286L69.5788 17.6779L67.3606 17.6394L65.1424 17.601V25.2959ZM42.5458 19.9072C43.0919 20.2262 43.2396 20.6574 43.24 21.9347C43.2402 22.913 43.2011 23.1848 43.0135 23.5086C42.7147 24.0249 42.1869 24.2405 41.223 24.2405H40.4332V21.9939V19.7472L41.3598 19.7513C41.8961 19.7538 42.3957 19.8194 42.5458 19.9072ZM51.5956 19.9941C52.2217 20.5126 52.2262 20.5504 52.2262 25.2435C52.2262 30.0344 52.2062 30.1894 51.531 30.6228C51.0611 30.9244 50.4759 30.9275 50.0135 30.6306C49.2955 30.1696 49.2951 30.1661 49.3303 25.1163L49.3622 20.5566L49.7817 20.1518C50.1395 19.8068 50.282 19.7472 50.7493 19.7472C51.1351 19.7472 51.3858 19.8204 51.5956 19.9941ZM69.4649 20.0035C69.9218 20.3819 70.0842 20.9111 70.0842 22.0214C70.0842 23.7168 69.6008 24.2405 68.0363 24.2405H67.1641V21.9939V19.7472H68.1597C69.0111 19.7472 69.2003 19.7843 69.4649 20.0035Z" fill="white"/>
</svg>
