<svg width="12" height="15" viewBox="0 0 12 15" fill="none" xmlns="http://www.w3.org/2000/svg">
<path d="M6 2.91669V0.666687L3 3.66669L6 6.66669V4.41669C8.4825 4.41669 10.5 6.43419 10.5 8.91669C10.5 11.1442 8.8725 12.9892 6.75 13.3492V14.8642C9.7125 14.4967 12 11.9767 12 8.91669C12 5.60169 9.315 2.91669 6 2.91669Z" fill="#1E2429"/>
<path d="M1.5 8.91669C1.5 7.67919 2.0025 6.55419 2.82 5.73669L1.755 4.67169C0.675 5.75919 0 7.25919 0 8.91669C0 11.9767 2.2875 14.4967 5.25 14.8642V13.3492C3.1275 12.9892 1.5 11.1442 1.5 8.91669Z" fill="#1E2429"/>
</svg>
