<svg width="64" height="64" viewBox="0 0 64 64" fill="none" xmlns="http://www.w3.org/2000/svg">
<path fill-rule="evenodd" clip-rule="evenodd" d="M9.89041 35.0685C9.89041 49.4581 21.5555 61.1233 35.9452 61.1233C50.3349 61.1233 62 49.4581 62 35.0685C62 20.6788 50.3349 9.01367 35.9452 9.01367C21.5555 9.01367 9.89041 20.6788 9.89041 35.0685ZM7.89041 35.0685C7.89041 50.5627 20.451 63.1233 35.9452 63.1233C51.4394 63.1233 64 50.5627 64 35.0685C64 19.5742 51.4394 7.01367 35.9452 7.01367C20.451 7.01367 7.89041 19.5742 7.89041 35.0685ZM23.0528 25.9022C22.6543 24.4151 24.0152 23.0543 25.5023 23.4527L29.1812 24.4385C30.6683 24.837 31.1664 26.6959 30.0778 27.7845L27.3846 30.4777C26.296 31.5663 24.4371 31.0682 24.0386 29.5811L23.0528 25.9022Z" fill="#484F55"/>
<path d="M7.89041 2.36379L6.30885 2.82989C6.11188 2.43038 5.81643 2.1141 5.42249 1.88105C5.02854 1.6369 4.58826 1.51483 4.10162 1.51483C3.38326 1.51483 2.79235 1.74788 2.32889 2.21398C1.86543 2.66898 1.6337 3.24606 1.6337 3.94521C1.6337 4.64436 1.86543 5.22143 2.32889 5.67644C2.79235 6.14254 3.38326 6.37559 4.10162 6.37559C4.58826 6.37559 5.02854 6.25906 5.42249 6.02601C5.81643 5.78186 6.11188 5.46003 6.30885 5.06052L7.89041 5.50997C7.57758 6.24241 7.07936 6.82504 6.39575 7.25785C5.72373 7.67956 4.95903 7.89041 4.10162 7.89041C2.93139 7.89041 1.95233 7.51309 1.16444 6.75845C0.388148 6.01491 0 5.07716 0 3.94521C0 2.81325 0.388148 1.8755 1.16444 1.13196C1.95233 0.377319 2.93139 0 4.10162 0C4.97061 0 5.74111 0.210855 6.41313 0.632564C7.08515 1.05427 7.57758 1.63135 7.89041 2.36379Z" fill="#484F55"/>
</svg>
