<svg width="16" height="16" viewBox="0 0 16 16" fill="none" xmlns="http://www.w3.org/2000/svg">
<g clip-path="url(#clip0_577_873)">
<path d="M12.6667 4.00008H11.3333C11.3333 2.16008 9.84 0.666748 8 0.666748C6.16 0.666748 4.66667 2.16008 4.66667 4.00008H3.33333C2.6 4.00008 2.00667 4.60008 2.00667 5.33342L2 13.3334C2 14.0667 2.6 14.6667 3.33333 14.6667H12.6667C13.4 14.6667 14 14.0667 14 13.3334V5.33342C14 4.60008 13.4 4.00008 12.6667 4.00008ZM8 2.00008C9.10667 2.00008 10 2.89341 10 4.00008H6C6 2.89341 6.89333 2.00008 8 2.00008ZM8 8.66675C6.16 8.66675 4.66667 7.17341 4.66667 5.33342H6C6 6.44008 6.89333 7.33342 8 7.33342C9.10667 7.33342 10 6.44008 10 5.33342H11.3333C11.3333 7.17341 9.84 8.66675 8 8.66675Z" fill="white"/>
</g>
<defs>
<clipPath id="clip0_577_873">
<rect width="16" height="16" fill="white"/>
</clipPath>
</defs>
</svg>
