<svg width="16" height="16" viewBox="0 0 16 16" fill="none" xmlns="http://www.w3.org/2000/svg">
<g clip-path="url(#clip0_344_869)">
<path d="M13.3598 9.55303L13.0062 9.90659L13.3598 10.2601L13.9595 10.8599L12.8864 11.933L12.5329 12.2866L12.8864 12.6401L13.4862 13.2399L13.24 13.4861L12.6402 12.8864L12.2866 12.5328L11.9331 12.8864L10.86 13.9595L10.2602 13.3597L9.90665 13.0061L9.55309 13.3597L8.95331 13.9595L8.70709 13.7133L10.7335 11.6868L11.0871 11.3333L10.7335 10.9797L5.0202 5.26637L4.66665 4.91281L4.31309 5.26637L2.28665 7.29281L2.04042 7.04659L2.6402 6.44681L2.99375 6.09325L2.6402 5.7397L2.04042 5.13992L3.11353 4.06681L3.46709 3.71325L3.11353 3.3597L2.51375 2.75992L2.75998 2.51369L3.35976 3.11347L3.71331 3.46703L4.06687 3.11347L5.13998 2.04036L5.73976 2.64014L6.09331 2.99369L6.44687 2.64014L7.04665 2.04036L7.29287 2.28659L5.26643 4.31303L4.91287 4.66659L5.26643 5.02014L10.9798 10.7335L11.3333 11.087L11.6869 10.7335L13.7133 8.70703L13.9595 8.95325L13.3598 9.55303Z" fill="white" stroke="white"/>
</g>
<defs>
<clipPath id="clip0_344_869">
<rect width="16" height="16" fill="white"/>
</clipPath>
</defs>
</svg>
