<svg width="199" height="100" viewBox="0 0 199 100" fill="none" xmlns="http://www.w3.org/2000/svg">
<path d="M52.6235 94.493L46.3073 98.0459C45.7952 98.3339 45.1824 98.3822 44.6315 98.178L2.45099 82.538C1.59661 82.2212 1.06438 81.367 1.15657 80.4604L3.91049 53.3802C3.9675 52.8196 4.25832 52.3091 4.71145 51.9741L72.1645 2.11758C72.6883 1.73042 73.3678 1.62259 73.9857 1.82857L196.464 42.6547C197.731 43.077 198.236 44.5982 197.474 45.6942L191.241 54.653C191.082 54.8818 190.973 55.1414 190.92 55.415L188.112 69.9226C188.039 70.2996 187.859 70.6475 187.593 70.925L177.889 81.0704C177.348 81.6366 176.525 81.8344 175.785 81.5764L80.5609 48.37C79.9021 48.1402 79.1711 48.2704 78.6321 48.7136L57.6135 65.9956C57.2195 66.3195 56.9641 66.7819 56.8997 67.2879L53.627 93.0024C53.5471 93.63 53.1749 94.1828 52.6235 94.493Z" fill="#E06F6F" fill-opacity="0.5" stroke="white" stroke-width="2"/>
</svg>
