<svg width="201" height="90" viewBox="0 0 201 90" fill="none" xmlns="http://www.w3.org/2000/svg">
<path d="M167.799 72.4766L149.5 64.5L143.843 62.3241C143.307 62.118 142.708 62.1521 142.2 62.4176L132.213 67.628C131.755 67.8667 131.223 67.9193 130.728 67.7748L119.5 64.5L48.8264 39.789C48.2996 39.6048 47.7198 39.649 47.2271 39.9111L25.6503 51.3881C24.9511 51.7601 24.0982 51.6843 23.4755 51.195L18.2644 47.1006C17.7818 46.7214 17.5 46.1417 17.5 45.5279V36.1768C17.5 35.4505 17.1062 34.7812 16.4713 34.4285L2.4083 26.6157C1.08976 25.8832 1.02575 24.0103 2.29121 23.1895L35.7438 1.49052C36.2246 1.17861 36.8162 1.08799 37.3684 1.24166L198.326 46.0341C199.286 46.3013 199.903 47.2347 199.772 48.2228L196.624 72.0595C196.546 72.6547 196.204 73.1831 195.693 73.4988L172.052 88.1135C170.719 88.9372 169 87.9788 169 86.4123V74.31C169 73.5144 168.528 72.7945 167.799 72.4766Z" fill="#E06F6F" fill-opacity="0.5" stroke="white" stroke-width="2"/>
</svg>
