<svg width="211" height="105" viewBox="0 0 211 105" fill="none" xmlns="http://www.w3.org/2000/svg">
<path d="M208.243 47.4971L190.373 40.3492C189.82 40.128 189.197 40.1647 188.674 40.4493L156.292 58.0693C155.788 58.3432 155.192 58.388 154.653 58.1924L61.8173 24.4784C61.0265 24.1912 60.5 23.4398 60.5 22.5985V12.8492C60.5 12.0338 60.005 11.3001 59.2489 10.9948L35.5139 1.40944C34.8821 1.1543 34.1639 1.23835 33.6081 1.63246L7.6717 20.0237C7.24142 20.3288 6.9491 20.7915 6.85837 21.3112L1.80335 50.2626C1.63 51.2554 2.22246 52.2221 3.18578 52.5183L168.053 103.209C168.65 103.392 169.298 103.287 169.805 102.923L208.664 75.0984C209.189 74.7228 209.5 74.1173 209.5 73.4722V49.3541C209.5 48.5363 209.002 47.8008 208.243 47.4971Z" fill="#E06F6F" fill-opacity="0.5" stroke="white" stroke-width="2"/>
</svg>
