<svg width="195" height="101" viewBox="0 0 195 101" fill="none" xmlns="http://www.w3.org/2000/svg">
<path d="M4.44721 28.1688C3.88222 35.2828 2.79419 47.634 1.98966 52.7717C1.80208 53.9696 2.52285 55.3475 3.67092 55.7374L131.465 99.1486C132.11 99.3676 132.822 99.2435 133.355 98.8193L188.359 55.0101C188.77 54.6832 189.036 54.2081 189.099 53.6872L193.313 19.0338C193.423 18.1304 192.909 17.2667 192.063 16.9323L154.249 1.99358C153.494 1.69507 152.633 1.88331 152.071 2.46987L141.927 13.0541C141.649 13.3446 141.465 13.7123 141.398 14.1091L138.615 30.813C138.54 31.2579 138.318 31.6647 137.984 31.9673L118.397 49.6882C117.846 50.1873 117.063 50.339 116.364 50.0819L18.2767 13.97C17.5063 13.6864 16.6407 13.9024 16.0939 14.5149L4.94926 26.9968C4.65782 27.3232 4.48186 27.7326 4.44721 28.1688Z" fill="#E06F6F" fill-opacity="0.5" stroke="white" stroke-width="2"/>
</svg>
