<svg width="151" height="133" viewBox="0 0 151 133" fill="none" xmlns="http://www.w3.org/2000/svg">
<path d="M137.286 127.494L132.338 130.92C131.811 131.284 131.143 131.375 130.538 131.163L3.04489 86.5407C2.14625 86.2262 1.59391 85.3218 1.72449 84.3787L5.88459 54.3335C5.9584 53.8005 6.2439 53.3196 6.67659 52.9997L76.1584 1.62229C76.6856 1.2325 77.3703 1.12582 77.991 1.33675L125.701 17.549C127.041 18.0044 127.498 19.6696 126.576 20.7442L116.804 32.145C116.604 32.3785 116.461 32.6551 116.385 32.9532L110.038 57.8845C109.749 59.0217 108.547 59.6665 107.44 59.2789L90.6362 53.3977C89.9372 53.153 89.1601 53.3147 88.6167 53.8179L78.4339 63.2464C77.3288 64.2696 77.7084 66.1009 79.1291 66.6006L147.307 90.5804C148.036 90.8367 148.552 91.4896 148.632 92.2577L149.404 99.5839C149.465 100.165 149.269 100.744 148.866 101.169L140.935 109.541C140.652 109.84 140.468 110.218 140.408 110.626L138.126 126.141C138.046 126.689 137.741 127.179 137.286 127.494Z" fill="#E06F6F" fill-opacity="0.5" stroke="white" stroke-width="2"/>
</svg>
