<svg width="156" height="138" viewBox="0 0 156 138" fill="none" xmlns="http://www.w3.org/2000/svg">
<path d="M30.4246 93.0905L27.6933 114.486C27.5791 115.38 28.0771 116.24 28.9092 116.586L76.8666 136.529C77.562 136.818 78.3608 136.692 78.9334 136.203L146.023 78.9076C146.333 78.6422 146.555 78.2881 146.659 77.8928L154.526 47.8114C154.793 46.7922 154.223 45.7411 153.224 45.4079L87.5 23.5L18.9271 1.45872C18.0813 1.18685 17.1575 1.50553 16.6593 2.24108L7.22823 16.1631C7.07762 16.3854 6.97333 16.6358 6.92157 16.8993L1.83713 42.7837C1.64408 43.7665 2.20775 44.7405 3.15603 45.0628L75.3464 69.5981C76.6465 70.04 77.1249 71.6304 76.2843 72.7161L66.8338 84.923C66.3307 85.5728 65.4813 85.8487 64.6924 85.6186L43.2429 79.3625C42.4866 79.1419 41.6713 79.3859 41.1604 79.9856L30.886 92.0468C30.6341 92.3425 30.4738 92.7052 30.4246 93.0905Z" fill="#2E7A6E" fill-opacity="0.5" stroke="white" stroke-width="2"/>
</svg>
