<svg width="64" height="64" viewBox="0 0 64 64" fill="none" xmlns="http://www.w3.org/2000/svg">
<path d="M1.93939 0C0.868297 0 0 0.868297 0 1.93939H1.93939V0Z" fill="#1E2429"/>
<path d="M3.87879 0H1.93939V1.93939H3.87879V0Z" fill="#1E2429"/>
<path d="M5.81818 0H3.87879V1.93939H5.81818V0Z" fill="#1E2429"/>
<path d="M7.75758 0H5.81818V1.93939H7.75758V0Z" fill="#1E2429"/>
<path d="M9.69697 0H7.75758V1.93939H9.69697V0Z" fill="#1E2429"/>
<path d="M11.6364 0H9.69697V1.93939H11.6364V0Z" fill="#1E2429"/>
<path d="M13.5758 1.93939C13.5758 0.868297 12.7075 0 11.6364 0V1.93939H13.5758Z" fill="#1E2429"/>
<path d="M17.4545 0H15.5152V1.93939H17.4545V0Z" fill="#1E2429"/>
<path d="M19.3939 0H17.4545V1.93939H19.3939V0Z" fill="#1E2429"/>
<path d="M21.3333 0H19.3939V1.93939H21.3333V0Z" fill="#1E2429"/>
<path d="M27.1515 0H25.2121V1.93939H27.1515V0Z" fill="#1E2429"/>
<path d="M31.0303 0H29.0909V1.93939H31.0303V0Z" fill="#1E2429"/>
<path d="M38.7879 0H36.8485V1.93939H38.7879V0Z" fill="#1E2429"/>
<path d="M42.6667 0H40.7273V1.93939H42.6667V0Z" fill="#1E2429"/>
<path d="M44.6061 0H42.6667V1.93939H44.6061V0Z" fill="#1E2429"/>
<path d="M46.5455 0H44.6061V1.93939H46.5455V0Z" fill="#1E2429"/>
<path d="M48.4848 0H46.5455V1.93939H48.4848V0Z" fill="#1E2429"/>
<path d="M52.3636 0C51.2925 0 50.4242 0.868297 50.4242 1.93939H52.3636V0Z" fill="#1E2429"/>
<path d="M54.303 0H52.3636V1.93939H54.303V0Z" fill="#1E2429"/>
<path d="M56.2424 0H54.303V1.93939H56.2424V0Z" fill="#1E2429"/>
<path d="M58.1818 0H56.2424V1.93939H58.1818V0Z" fill="#1E2429"/>
<path d="M60.1212 0H58.1818V1.93939H60.1212V0Z" fill="#1E2429"/>
<path d="M62.0606 0H60.1212V1.93939H62.0606V0Z" fill="#1E2429"/>
<path d="M64 1.93939C64 0.868297 63.1317 0 62.0606 0V1.93939H64Z" fill="#1E2429"/>
<path d="M1.93939 1.93939H0V3.87879H1.93939V1.93939Z" fill="#1E2429"/>
<path d="M13.5758 1.93939H11.6364V3.87879H13.5758V1.93939Z" fill="#1E2429"/>
<path d="M19.3939 1.93939H17.4545V3.87879H19.3939V1.93939Z" fill="#1E2429"/>
<path d="M21.3333 1.93939H19.3939V3.87879H21.3333V1.93939Z" fill="#1E2429"/>
<path d="M23.2727 1.93939H21.3333V3.87879H23.2727V1.93939Z" fill="#1E2429"/>
<path d="M27.1515 1.93939H25.2121V3.87879H27.1515V1.93939Z" fill="#1E2429"/>
<path d="M31.0303 1.93939H29.0909V3.87879H31.0303V1.93939Z" fill="#1E2429"/>
<path d="M36.8485 1.93939H34.9091V3.87879H36.8485L36.8485 1.93939Z" fill="#1E2429"/>
<path d="M38.7879 1.93939H36.8485L36.8485 3.87879H38.7879V1.93939Z" fill="#1E2429"/>
<path d="M52.3636 1.93939H50.4242V3.87879H52.3636V1.93939Z" fill="#1E2429"/>
<path d="M64 1.93939H62.0606V3.87879H64V1.93939Z" fill="#1E2429"/>
<path d="M1.93939 3.87879H0V5.81818H1.93939V3.87879Z" fill="#1E2429"/>
<path d="M5.81818 3.87879H3.87879V5.81818H5.81818V3.87879Z" fill="#1E2429"/>
<path d="M7.75758 3.87879H5.81818V5.81818H7.75758V3.87879Z" fill="#1E2429"/>
<path d="M9.69697 3.87879H7.75758V5.81818H9.69697V3.87879Z" fill="#1E2429"/>
<path d="M13.5758 3.87879H11.6364V5.81818H13.5758V3.87879Z" fill="#1E2429"/>
<path d="M17.4545 3.87879H15.5152V5.81818H17.4545V3.87879Z" fill="#1E2429"/>
<path d="M19.3939 3.87879H17.4545V5.81818H19.3939V3.87879Z" fill="#1E2429"/>
<path d="M29.0909 3.87879H27.1515V5.81818H29.0909V3.87879Z" fill="#1E2429"/>
<path d="M31.0303 3.87879H29.0909V5.81818H31.0303V3.87879Z" fill="#1E2429"/>
<path d="M32.9697 3.87879H31.0303V5.81818H32.9697V3.87879Z" fill="#1E2429"/>
<path d="M40.7273 3.87879H38.7879V5.81818H40.7273V3.87879Z" fill="#1E2429"/>
<path d="M42.6667 3.87879H40.7273V5.81818H42.6667V3.87879Z" fill="#1E2429"/>
<path d="M52.3636 3.87879H50.4242V5.81818H52.3636V3.87879Z" fill="#1E2429"/>
<path d="M56.2424 3.87879H54.303V5.81818H56.2424V3.87879Z" fill="#1E2429"/>
<path d="M58.1818 3.87879H56.2424V5.81818H58.1818V3.87879Z" fill="#1E2429"/>
<path d="M60.1212 3.87879H58.1818V5.81818H60.1212V3.87879Z" fill="#1E2429"/>
<path d="M64 3.87879H62.0606V5.81818H64V3.87879Z" fill="#1E2429"/>
<path d="M1.93939 5.81818H0V7.75758H1.93939V5.81818Z" fill="#1E2429"/>
<path d="M5.81818 5.81818H3.87879V7.75758H5.81818V5.81818Z" fill="#1E2429"/>
<path d="M7.75758 5.81818H5.81818V7.75758H7.75758V5.81818Z" fill="#1E2429"/>
<path d="M9.69697 5.81818H7.75758V7.75758H9.69697V5.81818Z" fill="#1E2429"/>
<path d="M13.5758 5.81818H11.6364V7.75758H13.5758V5.81818Z" fill="#1E2429"/>
<path d="M17.4545 5.81818H15.5152V7.75758H17.4545V5.81818Z" fill="#1E2429"/>
<path d="M19.3939 5.81818H17.4545V7.75758H19.3939V5.81818Z" fill="#1E2429"/>
<path d="M25.2121 5.81818H23.2727V7.75758H25.2121V5.81818Z" fill="#1E2429"/>
<path d="M27.1515 5.81818H25.2121V7.75758H27.1515V5.81818Z" fill="#1E2429"/>
<path d="M31.0303 5.81818H29.0909V7.75758H31.0303V5.81818Z" fill="#1E2429"/>
<path d="M32.9697 5.81818H31.0303V7.75758H32.9697V5.81818Z" fill="#1E2429"/>
<path d="M34.9091 5.81818H32.9697V7.75758H34.9091V5.81818Z" fill="#1E2429"/>
<path d="M36.8485 5.81818H34.9091V7.75758H36.8485V5.81818Z" fill="#1E2429"/>
<path d="M44.6061 5.81818H42.6667V7.75758H44.6061V5.81818Z" fill="#1E2429"/>
<path d="M48.4848 5.81818H46.5455V7.75758H48.4848V5.81818Z" fill="#1E2429"/>
<path d="M52.3636 5.81818H50.4242V7.75758H52.3636V5.81818Z" fill="#1E2429"/>
<path d="M56.2424 5.81818H54.303V7.75758H56.2424V5.81818Z" fill="#1E2429"/>
<path d="M58.1818 5.81818H56.2424V7.75758H58.1818V5.81818Z" fill="#1E2429"/>
<path d="M60.1212 5.81818H58.1818V7.75758H60.1212V5.81818Z" fill="#1E2429"/>
<path d="M64 5.81818H62.0606V7.75758H64V5.81818Z" fill="#1E2429"/>
<path d="M1.93939 7.75758H0V9.69697H1.93939V7.75758Z" fill="#1E2429"/>
<path d="M5.81818 7.75758H3.87879V9.69697H5.81818V7.75758Z" fill="#1E2429"/>
<path d="M7.75758 7.75758H5.81818V9.69697H7.75758V7.75758Z" fill="#1E2429"/>
<path d="M9.69697 7.75758H7.75758V9.69697H9.69697V7.75758Z" fill="#1E2429"/>
<path d="M13.5758 7.75758H11.6364V9.69697H13.5758V7.75758Z" fill="#1E2429"/>
<path d="M17.4545 7.75758H15.5152V9.69697H17.4545V7.75758Z" fill="#1E2429"/>
<path d="M19.3939 7.75758H17.4545V9.69697H19.3939V7.75758Z" fill="#1E2429"/>
<path d="M27.1515 7.75758H25.2121V9.69697H27.1515V7.75758Z" fill="#1E2429"/>
<path d="M31.0303 7.75758H29.0909V9.69697H31.0303V7.75758Z" fill="#1E2429"/>
<path d="M32.9697 7.75758H31.0303V9.69697H32.9697V7.75758Z" fill="#1E2429"/>
<path d="M36.8485 7.75758H34.9091V9.69697H36.8485V7.75758Z" fill="#1E2429"/>
<path d="M38.7879 7.75758H36.8485V9.69697H38.7879V7.75758Z" fill="#1E2429"/>
<path d="M52.3636 7.75758H50.4242V9.69697H52.3636V7.75758Z" fill="#1E2429"/>
<path d="M56.2424 7.75758H54.303V9.69697H56.2424V7.75758Z" fill="#1E2429"/>
<path d="M58.1818 7.75758H56.2424V9.69697H58.1818V7.75758Z" fill="#1E2429"/>
<path d="M60.1212 7.75758H58.1818V9.69697H60.1212V7.75758Z" fill="#1E2429"/>
<path d="M64 7.75758H62.0606V9.69697H64V7.75758Z" fill="#1E2429"/>
<path d="M1.93939 9.69697H0V11.6364H1.93939V9.69697Z" fill="#1E2429"/>
<path d="M13.5758 9.69697H11.6364V11.6364H13.5758V9.69697Z" fill="#1E2429"/>
<path d="M17.4545 9.69697H15.5152V11.6364H17.4545V9.69697Z" fill="#1E2429"/>
<path d="M19.3939 9.69697H17.4545V11.6364H19.3939V9.69697Z" fill="#1E2429"/>
<path d="M21.3333 9.69697H19.3939V11.6364H21.3333V9.69697Z" fill="#1E2429"/>
<path d="M23.2727 9.69697H21.3333V11.6364H23.2727V9.69697Z" fill="#1E2429"/>
<path d="M27.1515 9.69697H25.2121V11.6364H27.1515V9.69697Z" fill="#1E2429"/>
<path d="M31.0303 9.69697H29.0909V11.6364H31.0303V9.69697Z" fill="#1E2429"/>
<path d="M34.9091 9.69697H32.9697V11.6364H34.9091V9.69697Z" fill="#1E2429"/>
<path d="M40.7273 9.69697H38.7879V11.6364H40.7273V9.69697Z" fill="#1E2429"/>
<path d="M44.6061 9.69697H42.6667V11.6364H44.6061V9.69697Z" fill="#1E2429"/>
<path d="M52.3636 9.69697H50.4242V11.6364H52.3636V9.69697Z" fill="#1E2429"/>
<path d="M64 9.69697H62.0606V11.6364H64V9.69697Z" fill="#1E2429"/>
<path d="M1.93939 11.6364H0C0 12.7075 0.868297 13.5758 1.93939 13.5758V11.6364Z" fill="#1E2429"/>
<path d="M3.87879 11.6364H1.93939V13.5758H3.87879V11.6364Z" fill="#1E2429"/>
<path d="M5.81818 11.6364H3.87879V13.5758H5.81818V11.6364Z" fill="#1E2429"/>
<path d="M7.75758 11.6364H5.81818V13.5758H7.75758V11.6364Z" fill="#1E2429"/>
<path d="M9.69697 11.6364H7.75758V13.5758H9.69697V11.6364Z" fill="#1E2429"/>
<path d="M11.6364 11.6364H9.69697V13.5758H11.6364V11.6364Z" fill="#1E2429"/>
<path d="M13.5758 11.6364H11.6364V13.5758C12.7075 13.5758 13.5758 12.7075 13.5758 11.6364Z" fill="#1E2429"/>
<path d="M17.4545 11.6364H15.5152V13.5758H17.4545V11.6364Z" fill="#1E2429"/>
<path d="M21.3333 11.6364H19.3939V13.5758H21.3333V11.6364Z" fill="#1E2429"/>
<path d="M25.2121 11.6364H23.2727V13.5758H25.2121V11.6364Z" fill="#1E2429"/>
<path d="M29.0909 11.6364H27.1515V13.5758H29.0909V11.6364Z" fill="#1E2429"/>
<path d="M32.9697 11.6364H31.0303V13.5758H32.9697V11.6364Z" fill="#1E2429"/>
<path d="M36.8485 11.6364H34.9091V13.5758H36.8485V11.6364Z" fill="#1E2429"/>
<path d="M40.7273 11.6364H38.7879V13.5758H40.7273V11.6364Z" fill="#1E2429"/>
<path d="M44.6061 11.6364H42.6667V13.5758H44.6061V11.6364Z" fill="#1E2429"/>
<path d="M48.4848 11.6364H46.5455V13.5758H48.4848V11.6364Z" fill="#1E2429"/>
<path d="M52.3636 11.6364H50.4242C50.4242 12.7075 51.2925 13.5758 52.3636 13.5758V11.6364Z" fill="#1E2429"/>
<path d="M54.303 11.6364H52.3636V13.5758H54.303V11.6364Z" fill="#1E2429"/>
<path d="M56.2424 11.6364H54.303V13.5758H56.2424V11.6364Z" fill="#1E2429"/>
<path d="M58.1818 11.6364H56.2424V13.5758H58.1818V11.6364Z" fill="#1E2429"/>
<path d="M60.1212 11.6364H58.1818V13.5758H60.1212V11.6364Z" fill="#1E2429"/>
<path d="M62.0606 11.6364H60.1212V13.5758H62.0606V11.6364Z" fill="#1E2429"/>
<path d="M64 11.6364H62.0606V13.5758C63.1317 13.5758 64 12.7075 64 11.6364Z" fill="#1E2429"/>
<path d="M21.3333 13.5758H19.3939V15.5152H21.3333V13.5758Z" fill="#1E2429"/>
<path d="M25.2121 13.5758H23.2727V15.5152H25.2121V13.5758Z" fill="#1E2429"/>
<path d="M31.0303 13.5758H29.0909V15.5152H31.0303V13.5758Z" fill="#1E2429"/>
<path d="M34.9091 13.5758H32.9697V15.5152H34.9091V13.5758Z" fill="#1E2429"/>
<path d="M36.8485 13.5758H34.9091V15.5152H36.8485V13.5758Z" fill="#1E2429"/>
<path d="M40.7273 13.5758H38.7879V15.5152H40.7273V13.5758Z" fill="#1E2429"/>
<path d="M44.6061 13.5758H42.6667V15.5152H44.6061V13.5758Z" fill="#1E2429"/>
<path d="M46.5455 13.5758H44.6061V15.5152H46.5455V13.5758Z" fill="#1E2429"/>
<path d="M48.4848 13.5758H46.5455V15.5152H48.4848V13.5758Z" fill="#1E2429"/>
<path d="M5.81818 15.5152H3.87879V17.4545H5.81818V15.5152Z" fill="#1E2429"/>
<path d="M7.75758 15.5152H5.81818V17.4545H7.75758V15.5152Z" fill="#1E2429"/>
<path d="M9.69697 15.5152H7.75758V17.4545H9.69697V15.5152Z" fill="#1E2429"/>
<path d="M11.6364 15.5152H9.69697V17.4545H11.6364V15.5152Z" fill="#1E2429"/>
<path d="M13.5758 15.5152H11.6364V17.4545H13.5758V15.5152Z" fill="#1E2429"/>
<path d="M15.5152 15.5152H13.5758V17.4545H15.5152V15.5152Z" fill="#1E2429"/>
<path d="M19.3939 15.5152H17.4545V17.4545H19.3939V15.5152Z" fill="#1E2429"/>
<path d="M21.3333 15.5152H19.3939V17.4545H21.3333V15.5152Z" fill="#1E2429"/>
<path d="M36.8485 15.5152H34.9091V17.4545H36.8485V15.5152Z" fill="#1E2429"/>
<path d="M40.7273 15.5152H38.7879V17.4545H40.7273V15.5152Z" fill="#1E2429"/>
<path d="M48.4848 15.5152H46.5455V17.4545H48.4848V15.5152Z" fill="#1E2429"/>
<path d="M50.4242 15.5152H48.4848V17.4545H50.4242V15.5152Z" fill="#1E2429"/>
<path d="M54.303 15.5152H52.3636V17.4545H54.303V15.5152Z" fill="#1E2429"/>
<path d="M56.2424 15.5152H54.303V17.4545H56.2424V15.5152Z" fill="#1E2429"/>
<path d="M58.1818 15.5152H56.2424V17.4545H58.1818V15.5152Z" fill="#1E2429"/>
<path d="M60.1212 15.5152H58.1818V17.4545H60.1212V15.5152Z" fill="#1E2429"/>
<path d="M64 15.5152H62.0606V17.4545H64V15.5152Z" fill="#1E2429"/>
<path d="M3.87879 17.4545H1.93939V19.3939H3.87879V17.4545Z" fill="#1E2429"/>
<path d="M5.81818 17.4545H3.87879V19.3939H5.81818V17.4545Z" fill="#1E2429"/>
<path d="M9.69697 17.4545H7.75758V19.3939H9.69697V17.4545Z" fill="#1E2429"/>
<path d="M11.6364 17.4545H9.69697V19.3939H11.6364V17.4545Z" fill="#1E2429"/>
<path d="M15.5152 17.4545H13.5758V19.3939H15.5152V17.4545Z" fill="#1E2429"/>
<path d="M17.4545 17.4545H15.5152V19.3939H17.4545V17.4545Z" fill="#1E2429"/>
<path d="M21.3333 17.4545H19.3939V19.3939H21.3333V17.4545Z" fill="#1E2429"/>
<path d="M23.2727 17.4545H21.3333V19.3939H23.2727V17.4545Z" fill="#1E2429"/>
<path d="M25.2121 17.4545H23.2727V19.3939H25.2121V17.4545Z" fill="#1E2429"/>
<path d="M31.0303 17.4545H29.0909V19.3939H31.0303V17.4545Z" fill="#1E2429"/>
<path d="M38.7879 17.4545H36.8485L36.8485 19.3939H38.7879V17.4545Z" fill="#1E2429"/>
<path d="M40.7273 17.4545H38.7879V19.3939H40.7273V17.4545Z" fill="#1E2429"/>
<path d="M42.6667 17.4545H40.7273V19.3939H42.6667V17.4545Z" fill="#1E2429"/>
<path d="M44.6061 17.4545H42.6667V19.3939H44.6061V17.4545Z" fill="#1E2429"/>
<path d="M48.4848 17.4545H46.5455V19.3939H48.4848V17.4545Z" fill="#1E2429"/>
<path d="M54.303 17.4545H52.3636V19.3939H54.303V17.4545Z" fill="#1E2429"/>
<path d="M62.0606 17.4545H60.1212V19.3939H62.0606V17.4545Z" fill="#1E2429"/>
<path d="M64 17.4545H62.0606V19.3939H64V17.4545Z" fill="#1E2429"/>
<path d="M5.81818 19.3939H3.87879V21.3333H5.81818V19.3939Z" fill="#1E2429"/>
<path d="M9.69697 19.3939H7.75758V21.3333H9.69697V19.3939Z" fill="#1E2429"/>
<path d="M13.5758 19.3939H11.6364V21.3333H13.5758V19.3939Z" fill="#1E2429"/>
<path d="M15.5152 19.3939H13.5758V21.3333H15.5152V19.3939Z" fill="#1E2429"/>
<path d="M17.4545 19.3939H15.5152V21.3333H17.4545V19.3939Z" fill="#1E2429"/>
<path d="M23.2727 19.3939H21.3333V21.3333H23.2727V19.3939Z" fill="#1E2429"/>
<path d="M25.2121 19.3939H23.2727V21.3333H25.2121V19.3939Z" fill="#1E2429"/>
<path d="M32.9697 19.3939H31.0303V21.3333H32.9697V19.3939Z" fill="#1E2429"/>
<path d="M34.9091 19.3939H32.9697V21.3333H34.9091V19.3939Z" fill="#1E2429"/>
<path d="M36.8485 19.3939H34.9091V21.3333H36.8485L36.8485 19.3939Z" fill="#1E2429"/>
<path d="M42.6667 19.3939H40.7273V21.3333H42.6667V19.3939Z" fill="#1E2429"/>
<path d="M44.6061 19.3939H42.6667V21.3333H44.6061V19.3939Z" fill="#1E2429"/>
<path d="M48.4848 19.3939H46.5455V21.3333H48.4848V19.3939Z" fill="#1E2429"/>
<path d="M52.3636 19.3939H50.4242V21.3333H52.3636V19.3939Z" fill="#1E2429"/>
<path d="M54.303 19.3939H52.3636V21.3333H54.303V19.3939Z" fill="#1E2429"/>
<path d="M64 19.3939H62.0606V21.3333H64V19.3939Z" fill="#1E2429"/>
<path d="M5.81818 21.3333H3.87879V23.2727H5.81818V21.3333Z" fill="#1E2429"/>
<path d="M7.75758 21.3333H5.81818V23.2727H7.75758V21.3333Z" fill="#1E2429"/>
<path d="M11.6364 21.3333H9.69697V23.2727H11.6364V21.3333Z" fill="#1E2429"/>
<path d="M15.5152 21.3333H13.5758V23.2727H15.5152V21.3333Z" fill="#1E2429"/>
<path d="M19.3939 21.3333H17.4545V23.2727H19.3939V21.3333Z" fill="#1E2429"/>
<path d="M21.3333 21.3333H19.3939V23.2727H21.3333V21.3333Z" fill="#1E2429"/>
<path d="M25.2121 21.3333H23.2727V23.2727H25.2121V21.3333Z" fill="#1E2429"/>
<path d="M27.1515 21.3333H25.2121V23.2727H27.1515V21.3333Z" fill="#1E2429"/>
<path d="M31.0303 21.3333H29.0909V23.2727H31.0303V21.3333Z" fill="#1E2429"/>
<path d="M34.9091 21.3333H32.9697V23.2727H34.9091V21.3333Z" fill="#1E2429"/>
<path d="M38.7879 21.3333H36.8485L36.8485 23.2727H38.7879V21.3333Z" fill="#1E2429"/>
<path d="M40.7273 21.3333H38.7879V23.2727H40.7273V21.3333Z" fill="#1E2429"/>
<path d="M46.5455 21.3333H44.6061V23.2727H46.5455V21.3333Z" fill="#1E2429"/>
<path d="M48.4848 21.3333H46.5455V23.2727H48.4848V21.3333Z" fill="#1E2429"/>
<path d="M56.2424 21.3333H54.303V23.2727H56.2424V21.3333Z" fill="#1E2429"/>
<path d="M58.1818 21.3333H56.2424V23.2727H58.1818V21.3333Z" fill="#1E2429"/>
<path d="M60.1212 21.3333H58.1818V23.2727H60.1212V21.3333Z" fill="#1E2429"/>
<path d="M62.0606 21.3333H60.1212V23.2727H62.0606V21.3333Z" fill="#1E2429"/>
<path d="M64 21.3333H62.0606V23.2727H64V21.3333Z" fill="#1E2429"/>
<path d="M7.75758 23.2727H5.81818V25.2121H7.75758V23.2727Z" fill="#1E2429"/>
<path d="M13.5758 23.2727H11.6364V25.2121H13.5758V23.2727Z" fill="#1E2429"/>
<path d="M15.5152 23.2727H13.5758V25.2121H15.5152V23.2727Z" fill="#1E2429"/>
<path d="M17.4545 23.2727H15.5152V25.2121H17.4545V23.2727Z" fill="#1E2429"/>
<path d="M19.3939 23.2727H17.4545V25.2121H19.3939V23.2727Z" fill="#1E2429"/>
<path d="M21.3333 23.2727H19.3939V25.2121H21.3333V23.2727Z" fill="#1E2429"/>
<path d="M25.2121 23.2727H23.2727V25.2121H25.2121V23.2727Z" fill="#1E2429"/>
<path d="M27.1515 23.2727H25.2121V25.2121H27.1515V23.2727Z" fill="#1E2429"/>
<path d="M29.0909 23.2727H27.1515V25.2121H29.0909V23.2727Z" fill="#1E2429"/>
<path d="M32.9697 23.2727H31.0303V25.2121H32.9697V23.2727Z" fill="#1E2429"/>
<path d="M36.8485 23.2727H34.9091V25.2121H36.8485L36.8485 23.2727Z" fill="#1E2429"/>
<path d="M42.6667 23.2727H40.7273V25.2121H42.6667V23.2727Z" fill="#1E2429"/>
<path d="M44.6061 23.2727H42.6667V25.2121H44.6061V23.2727Z" fill="#1E2429"/>
<path d="M46.5455 23.2727H44.6061V25.2121H46.5455V23.2727Z" fill="#1E2429"/>
<path d="M48.4848 23.2727H46.5455V25.2121H48.4848V23.2727Z" fill="#1E2429"/>
<path d="M50.4242 23.2727H48.4848V25.2121H50.4242V23.2727Z" fill="#1E2429"/>
<path d="M58.1818 23.2727H56.2424V25.2121H58.1818V23.2727Z" fill="#1E2429"/>
<path d="M60.1212 23.2727H58.1818V25.2121H60.1212V23.2727Z" fill="#1E2429"/>
<path d="M64 23.2727H62.0606V25.2121H64V23.2727Z" fill="#1E2429"/>
<path d="M9.69697 25.2121H7.75758V27.1515H9.69697V25.2121Z" fill="#1E2429"/>
<path d="M17.4545 25.2121H15.5152V27.1515H17.4545V25.2121Z" fill="#1E2429"/>
<path d="M19.3939 25.2121H17.4545V27.1515H19.3939V25.2121Z" fill="#1E2429"/>
<path d="M21.3333 25.2121H19.3939V27.1515H21.3333V25.2121Z" fill="#1E2429"/>
<path d="M23.2727 25.2121H21.3333V27.1515H23.2727V25.2121Z" fill="#1E2429"/>
<path d="M27.1515 25.2121H25.2121V27.1515H27.1515V25.2121Z" fill="#1E2429"/>
<path d="M32.9697 25.2121H31.0303V27.1515H32.9697V25.2121Z" fill="#1E2429"/>
<path d="M48.4848 25.2121H46.5455V27.1515H48.4848V25.2121Z" fill="#1E2429"/>
<path d="M52.3636 25.2121H50.4242V27.1515H52.3636V25.2121Z" fill="#1E2429"/>
<path d="M54.303 25.2121H52.3636V27.1515H54.303V25.2121Z" fill="#1E2429"/>
<path d="M56.2424 25.2121H54.303V27.1515H56.2424V25.2121Z" fill="#1E2429"/>
<path d="M62.0606 25.2121H60.1212V27.1515H62.0606V25.2121Z" fill="#1E2429"/>
<path d="M64 25.2121H62.0606V27.1515H64V25.2121Z" fill="#1E2429"/>
<path d="M5.81818 27.1515H3.87879V29.0909H5.81818V27.1515Z" fill="#1E2429"/>
<path d="M9.69697 27.1515H7.75758V29.0909H9.69697V27.1515Z" fill="#1E2429"/>
<path d="M13.5758 27.1515H11.6364V29.0909H13.5758V27.1515Z" fill="#1E2429"/>
<path d="M17.4545 27.1515H15.5152V29.0909H17.4545V27.1515Z" fill="#1E2429"/>
<path d="M21.3333 27.1515H19.3939V29.0909H21.3333V27.1515Z" fill="#1E2429"/>
<path d="M25.2121 27.1515H23.2727V29.0909H25.2121V27.1515Z" fill="#1E2429"/>
<path d="M32.9697 27.1515H31.0303V29.0909H32.9697V27.1515Z" fill="#1E2429"/>
<path d="M36.8485 27.1515H34.9091V29.0909H36.8485V27.1515Z" fill="#1E2429"/>
<path d="M46.5455 27.1515H44.6061V29.0909H46.5455V27.1515Z" fill="#1E2429"/>
<path d="M50.4242 27.1515H48.4848V29.0909H50.4242V27.1515Z" fill="#1E2429"/>
<path d="M56.2424 27.1515H54.303V29.0909H56.2424V27.1515Z" fill="#1E2429"/>
<path d="M60.1212 27.1515H58.1818V29.0909H60.1212V27.1515Z" fill="#1E2429"/>
<path d="M64 27.1515H62.0606V29.0909H64V27.1515Z" fill="#1E2429"/>
<path d="M3.87879 29.0909H1.93939V31.0303H3.87879V29.0909Z" fill="#1E2429"/>
<path d="M9.69697 29.0909H7.75758V31.0303H9.69697V29.0909Z" fill="#1E2429"/>
<path d="M21.3333 29.0909H19.3939V31.0303H21.3333V29.0909Z" fill="#1E2429"/>
<path d="M23.2727 29.0909H21.3333V31.0303H23.2727V29.0909Z" fill="#1E2429"/>
<path d="M27.1515 29.0909H25.2121V31.0303H27.1515V29.0909Z" fill="#1E2429"/>
<path d="M29.0909 29.0909H27.1515V31.0303H29.0909V29.0909Z" fill="#1E2429"/>
<path d="M31.0303 29.0909H29.0909V31.0303H31.0303V29.0909Z" fill="#1E2429"/>
<path d="M32.9697 29.0909H31.0303V31.0303H32.9697V29.0909Z" fill="#1E2429"/>
<path d="M36.8485 29.0909H34.9091V31.0303H36.8485V29.0909Z" fill="#1E2429"/>
<path d="M40.7273 29.0909H38.7879V31.0303H40.7273V29.0909Z" fill="#1E2429"/>
<path d="M42.6667 29.0909H40.7273V31.0303H42.6667V29.0909Z" fill="#1E2429"/>
<path d="M52.3636 29.0909H50.4242V31.0303H52.3636V29.0909Z" fill="#1E2429"/>
<path d="M56.2424 29.0909H54.303V31.0303H56.2424V29.0909Z" fill="#1E2429"/>
<path d="M58.1818 29.0909H56.2424V31.0303H58.1818V29.0909Z" fill="#1E2429"/>
<path d="M60.1212 29.0909H58.1818V31.0303H60.1212V29.0909Z" fill="#1E2429"/>
<path d="M62.0606 29.0909H60.1212V31.0303H62.0606V29.0909Z" fill="#1E2429"/>
<path d="M64 29.0909H62.0606V31.0303H64V29.0909Z" fill="#1E2429"/>
<path d="M1.93939 31.0303H0V32.9697H1.93939V31.0303Z" fill="#1E2429"/>
<path d="M9.69697 31.0303H7.75758V32.9697H9.69697V31.0303Z" fill="#1E2429"/>
<path d="M13.5758 31.0303H11.6364V32.9697H13.5758V31.0303Z" fill="#1E2429"/>
<path d="M15.5152 31.0303H13.5758V32.9697H15.5152V31.0303Z" fill="#1E2429"/>
<path d="M19.3939 31.0303H17.4545V32.9697H19.3939V31.0303Z" fill="#1E2429"/>
<path d="M25.2121 31.0303H23.2727V32.9697H25.2121V31.0303Z" fill="#1E2429"/>
<path d="M29.0909 31.0303H27.1515V32.9697H29.0909V31.0303Z" fill="#1E2429"/>
<path d="M34.9091 31.0303H32.9697V32.9697H34.9091V31.0303Z" fill="#1E2429"/>
<path d="M36.8485 31.0303H34.9091V32.9697H36.8485V31.0303Z" fill="#1E2429"/>
<path d="M38.7879 31.0303H36.8485V32.9697H38.7879V31.0303Z" fill="#1E2429"/>
<path d="M42.6667 31.0303H40.7273V32.9697H42.6667V31.0303Z" fill="#1E2429"/>
<path d="M46.5455 31.0303H44.6061V32.9697H46.5455V31.0303Z" fill="#1E2429"/>
<path d="M50.4242 31.0303H48.4848V32.9697H50.4242V31.0303Z" fill="#1E2429"/>
<path d="M54.303 31.0303H52.3636V32.9697H54.303V31.0303Z" fill="#1E2429"/>
<path d="M56.2424 31.0303H54.303V32.9697H56.2424V31.0303Z" fill="#1E2429"/>
<path d="M60.1212 31.0303H58.1818V32.9697H60.1212V31.0303Z" fill="#1E2429"/>
<path d="M17.4545 32.9697H15.5152V34.9091H17.4545V32.9697Z" fill="#1E2429"/>
<path d="M19.3939 32.9697H17.4545V34.9091H19.3939V32.9697Z" fill="#1E2429"/>
<path d="M21.3333 32.9697H19.3939V34.9091H21.3333V32.9697Z" fill="#1E2429"/>
<path d="M23.2727 32.9697H21.3333V34.9091H23.2727V32.9697Z" fill="#1E2429"/>
<path d="M29.0909 32.9697H27.1515V34.9091H29.0909V32.9697Z" fill="#1E2429"/>
<path d="M32.9697 32.9697H31.0303V34.9091H32.9697V32.9697Z" fill="#1E2429"/>
<path d="M48.4848 32.9697H46.5455V34.9091H48.4848V32.9697Z" fill="#1E2429"/>
<path d="M50.4242 32.9697H48.4848V34.9091H50.4242V32.9697Z" fill="#1E2429"/>
<path d="M52.3636 32.9697H50.4242V34.9091H52.3636V32.9697Z" fill="#1E2429"/>
<path d="M54.303 32.9697H52.3636V34.9091H54.303V32.9697Z" fill="#1E2429"/>
<path d="M64 32.9697H62.0606V34.9091H64V32.9697Z" fill="#1E2429"/>
<path d="M3.87879 34.9091H1.93939V36.8485H3.87879V34.9091Z" fill="#1E2429"/>
<path d="M7.75758 34.9091H5.81818V36.8485H7.75758V34.9091Z" fill="#1E2429"/>
<path d="M13.5758 34.9091H11.6364V36.8485H13.5758V34.9091Z" fill="#1E2429"/>
<path d="M15.5152 34.9091H13.5758V36.8485H15.5152V34.9091Z" fill="#1E2429"/>
<path d="M23.2727 34.9091H21.3333V36.8485H23.2727V34.9091Z" fill="#1E2429"/>
<path d="M27.1515 34.9091H25.2121V36.8485H27.1515V34.9091Z" fill="#1E2429"/>
<path d="M29.0909 34.9091H27.1515V36.8485H29.0909V34.9091Z" fill="#1E2429"/>
<path d="M31.0303 34.9091H29.0909V36.8485H31.0303V34.9091Z" fill="#1E2429"/>
<path d="M34.9091 34.9091H32.9697V36.8485H34.9091V34.9091Z" fill="#1E2429"/>
<path d="M36.8485 34.9091H34.9091V36.8485H36.8485V34.9091Z" fill="#1E2429"/>
<path d="M40.7273 34.9091H38.7879V36.8485H40.7273V34.9091Z" fill="#1E2429"/>
<path d="M50.4242 34.9091H48.4848V36.8485H50.4242V34.9091Z" fill="#1E2429"/>
<path d="M54.303 34.9091H52.3636V36.8485H54.303V34.9091Z" fill="#1E2429"/>
<path d="M58.1818 34.9091H56.2424V36.8485H58.1818V34.9091Z" fill="#1E2429"/>
<path d="M62.0606 34.9091H60.1212V36.8485H62.0606V34.9091Z" fill="#1E2429"/>
<path d="M1.93939 36.8485L0 36.8485V38.7879H1.93939V36.8485Z" fill="#1E2429"/>
<path d="M7.75758 36.8485H5.81818V38.7879H7.75758V36.8485Z" fill="#1E2429"/>
<path d="M11.6364 36.8485L9.69697 36.8485V38.7879H11.6364V36.8485Z" fill="#1E2429"/>
<path d="M15.5152 36.8485H13.5758V38.7879H15.5152V36.8485Z" fill="#1E2429"/>
<path d="M17.4545 36.8485L15.5152 36.8485V38.7879H17.4545V36.8485Z" fill="#1E2429"/>
<path d="M19.3939 36.8485H17.4545V38.7879H19.3939V36.8485Z" fill="#1E2429"/>
<path d="M25.2121 36.8485H23.2727V38.7879H25.2121V36.8485Z" fill="#1E2429"/>
<path d="M34.9091 36.8485H32.9697V38.7879H34.9091V36.8485Z" fill="#1E2429"/>
<path d="M38.7879 36.8485H36.8485L36.8485 38.7879H38.7879V36.8485Z" fill="#1E2429"/>
<path d="M40.7273 36.8485H38.7879V38.7879H40.7273V36.8485Z" fill="#1E2429"/>
<path d="M44.6061 36.8485H42.6667V38.7879H44.6061V36.8485Z" fill="#1E2429"/>
<path d="M46.5455 36.8485H44.6061V38.7879H46.5455V36.8485Z" fill="#1E2429"/>
<path d="M48.4848 36.8485L46.5455 36.8485V38.7879H48.4848V36.8485Z" fill="#1E2429"/>
<path d="M50.4242 36.8485H48.4848V38.7879H50.4242V36.8485Z" fill="#1E2429"/>
<path d="M54.303 36.8485H52.3636V38.7879H54.303V36.8485Z" fill="#1E2429"/>
<path d="M56.2424 36.8485H54.303V38.7879H56.2424V36.8485Z" fill="#1E2429"/>
<path d="M64 36.8485L62.0606 36.8485V38.7879H64V36.8485Z" fill="#1E2429"/>
<path d="M1.93939 38.7879H0V40.7273H1.93939V38.7879Z" fill="#1E2429"/>
<path d="M3.87879 38.7879H1.93939V40.7273H3.87879V38.7879Z" fill="#1E2429"/>
<path d="M9.69697 38.7879H7.75758V40.7273H9.69697V38.7879Z" fill="#1E2429"/>
<path d="M13.5758 38.7879H11.6364V40.7273H13.5758V38.7879Z" fill="#1E2429"/>
<path d="M15.5152 38.7879H13.5758V40.7273H15.5152V38.7879Z" fill="#1E2429"/>
<path d="M17.4545 38.7879H15.5152V40.7273H17.4545V38.7879Z" fill="#1E2429"/>
<path d="M19.3939 38.7879H17.4545V40.7273H19.3939V38.7879Z" fill="#1E2429"/>
<path d="M25.2121 38.7879H23.2727V40.7273H25.2121V38.7879Z" fill="#1E2429"/>
<path d="M29.0909 38.7879H27.1515V40.7273H29.0909V38.7879Z" fill="#1E2429"/>
<path d="M34.9091 38.7879H32.9697V40.7273H34.9091V38.7879Z" fill="#1E2429"/>
<path d="M36.8485 38.7879H34.9091V40.7273H36.8485L36.8485 38.7879Z" fill="#1E2429"/>
<path d="M42.6667 38.7879H40.7273V40.7273H42.6667V38.7879Z" fill="#1E2429"/>
<path d="M46.5455 38.7879H44.6061V40.7273H46.5455V38.7879Z" fill="#1E2429"/>
<path d="M50.4242 38.7879H48.4848V40.7273H50.4242V38.7879Z" fill="#1E2429"/>
<path d="M1.93939 40.7273H0V42.6667H1.93939V40.7273Z" fill="#1E2429"/>
<path d="M5.81818 40.7273H3.87879V42.6667H5.81818V40.7273Z" fill="#1E2429"/>
<path d="M9.69697 40.7273H7.75758V42.6667H9.69697V40.7273Z" fill="#1E2429"/>
<path d="M15.5152 40.7273H13.5758V42.6667H15.5152V40.7273Z" fill="#1E2429"/>
<path d="M19.3939 40.7273H17.4545V42.6667H19.3939V40.7273Z" fill="#1E2429"/>
<path d="M21.3333 40.7273H19.3939V42.6667H21.3333V40.7273Z" fill="#1E2429"/>
<path d="M23.2727 40.7273H21.3333V42.6667H23.2727V40.7273Z" fill="#1E2429"/>
<path d="M29.0909 40.7273H27.1515V42.6667H29.0909V40.7273Z" fill="#1E2429"/>
<path d="M31.0303 40.7273H29.0909V42.6667H31.0303V40.7273Z" fill="#1E2429"/>
<path d="M34.9091 40.7273H32.9697V42.6667H34.9091V40.7273Z" fill="#1E2429"/>
<path d="M38.7879 40.7273H36.8485L36.8485 42.6667H38.7879V40.7273Z" fill="#1E2429"/>
<path d="M46.5455 40.7273H44.6061V42.6667H46.5455V40.7273Z" fill="#1E2429"/>
<path d="M50.4242 40.7273H48.4848V42.6667H50.4242V40.7273Z" fill="#1E2429"/>
<path d="M54.303 40.7273H52.3636V42.6667H54.303V40.7273Z" fill="#1E2429"/>
<path d="M60.1212 40.7273H58.1818V42.6667H60.1212V40.7273Z" fill="#1E2429"/>
<path d="M62.0606 40.7273H60.1212V42.6667H62.0606V40.7273Z" fill="#1E2429"/>
<path d="M7.75758 42.6667H5.81818V44.6061H7.75758V42.6667Z" fill="#1E2429"/>
<path d="M11.6364 42.6667H9.69697V44.6061H11.6364V42.6667Z" fill="#1E2429"/>
<path d="M13.5758 42.6667H11.6364V44.6061H13.5758V42.6667Z" fill="#1E2429"/>
<path d="M15.5152 42.6667H13.5758V44.6061H15.5152V42.6667Z" fill="#1E2429"/>
<path d="M17.4545 42.6667H15.5152V44.6061H17.4545V42.6667Z" fill="#1E2429"/>
<path d="M21.3333 42.6667H19.3939V44.6061H21.3333V42.6667Z" fill="#1E2429"/>
<path d="M25.2121 42.6667H23.2727V44.6061H25.2121V42.6667Z" fill="#1E2429"/>
<path d="M32.9697 42.6667H31.0303V44.6061H32.9697V42.6667Z" fill="#1E2429"/>
<path d="M36.8485 42.6667H34.9091V44.6061H36.8485L36.8485 42.6667Z" fill="#1E2429"/>
<path d="M40.7273 42.6667H38.7879V44.6061H40.7273V42.6667Z" fill="#1E2429"/>
<path d="M48.4848 42.6667H46.5455V44.6061H48.4848V42.6667Z" fill="#1E2429"/>
<path d="M52.3636 42.6667H50.4242V44.6061H52.3636V42.6667Z" fill="#1E2429"/>
<path d="M56.2424 42.6667H54.303V44.6061H56.2424V42.6667Z" fill="#1E2429"/>
<path d="M64 42.6667H62.0606V44.6061H64V42.6667Z" fill="#1E2429"/>
<path d="M1.93939 44.6061H0V46.5455H1.93939V44.6061Z" fill="#1E2429"/>
<path d="M7.75758 44.6061H5.81818V46.5455H7.75758V44.6061Z" fill="#1E2429"/>
<path d="M9.69697 44.6061H7.75758V46.5455H9.69697V44.6061Z" fill="#1E2429"/>
<path d="M17.4545 44.6061H15.5152V46.5455H17.4545V44.6061Z" fill="#1E2429"/>
<path d="M19.3939 44.6061H17.4545V46.5455H19.3939V44.6061Z" fill="#1E2429"/>
<path d="M23.2727 44.6061H21.3333V46.5455H23.2727V44.6061Z" fill="#1E2429"/>
<path d="M27.1515 44.6061H25.2121V46.5455H27.1515V44.6061Z" fill="#1E2429"/>
<path d="M34.9091 44.6061H32.9697V46.5455H34.9091V44.6061Z" fill="#1E2429"/>
<path d="M38.7879 44.6061H36.8485L36.8485 46.5455H38.7879V44.6061Z" fill="#1E2429"/>
<path d="M40.7273 44.6061H38.7879V46.5455H40.7273V44.6061Z" fill="#1E2429"/>
<path d="M42.6667 44.6061H40.7273V46.5455H42.6667V44.6061Z" fill="#1E2429"/>
<path d="M46.5455 44.6061H44.6061V46.5455H46.5455V44.6061Z" fill="#1E2429"/>
<path d="M52.3636 44.6061H50.4242V46.5455H52.3636V44.6061Z" fill="#1E2429"/>
<path d="M54.303 44.6061H52.3636V46.5455H54.303V44.6061Z" fill="#1E2429"/>
<path d="M58.1818 44.6061H56.2424V46.5455H58.1818V44.6061Z" fill="#1E2429"/>
<path d="M60.1212 44.6061H58.1818V46.5455H60.1212V44.6061Z" fill="#1E2429"/>
<path d="M62.0606 44.6061H60.1212V46.5455H62.0606V44.6061Z" fill="#1E2429"/>
<path d="M64 44.6061H62.0606V46.5455H64V44.6061Z" fill="#1E2429"/>
<path d="M3.87879 46.5455H1.93939V48.4848H3.87879V46.5455Z" fill="#1E2429"/>
<path d="M5.81818 46.5455H3.87879V48.4848H5.81818V46.5455Z" fill="#1E2429"/>
<path d="M7.75758 46.5455H5.81818V48.4848H7.75758V46.5455Z" fill="#1E2429"/>
<path d="M11.6364 46.5455H9.69697V48.4848H11.6364V46.5455Z" fill="#1E2429"/>
<path d="M13.5758 46.5455H11.6364V48.4848H13.5758V46.5455Z" fill="#1E2429"/>
<path d="M15.5152 46.5455H13.5758V48.4848H15.5152V46.5455Z" fill="#1E2429"/>
<path d="M17.4545 46.5455H15.5152V48.4848H17.4545V46.5455Z" fill="#1E2429"/>
<path d="M21.3333 46.5455H19.3939V48.4848H21.3333V46.5455Z" fill="#1E2429"/>
<path d="M25.2121 46.5455H23.2727V48.4848H25.2121V46.5455Z" fill="#1E2429"/>
<path d="M29.0909 46.5455H27.1515V48.4848H29.0909V46.5455Z" fill="#1E2429"/>
<path d="M32.9697 46.5455H31.0303V48.4848H32.9697V46.5455Z" fill="#1E2429"/>
<path d="M36.8485 46.5455H34.9091V48.4848H36.8485L36.8485 46.5455Z" fill="#1E2429"/>
<path d="M38.7879 46.5455H36.8485L36.8485 48.4848H38.7879V46.5455Z" fill="#1E2429"/>
<path d="M44.6061 46.5455H42.6667V48.4848H44.6061V46.5455Z" fill="#1E2429"/>
<path d="M46.5455 46.5455H44.6061V48.4848H46.5455V46.5455Z" fill="#1E2429"/>
<path d="M48.4848 46.5455H46.5455V48.4848H48.4848V46.5455Z" fill="#1E2429"/>
<path d="M50.4242 46.5455H48.4848V48.4848H50.4242V46.5455Z" fill="#1E2429"/>
<path d="M52.3636 46.5455H50.4242V48.4848H52.3636V46.5455Z" fill="#1E2429"/>
<path d="M54.303 46.5455H52.3636V48.4848H54.303V46.5455Z" fill="#1E2429"/>
<path d="M56.2424 46.5455H54.303V48.4848H56.2424V46.5455Z" fill="#1E2429"/>
<path d="M60.1212 46.5455H58.1818V48.4848H60.1212V46.5455Z" fill="#1E2429"/>
<path d="M64 46.5455H62.0606V48.4848H64V46.5455Z" fill="#1E2429"/>
<path d="M23.2727 48.4848H21.3333V50.4242H23.2727V48.4848Z" fill="#1E2429"/>
<path d="M25.2121 48.4848H23.2727V50.4242H25.2121V48.4848Z" fill="#1E2429"/>
<path d="M27.1515 48.4848H25.2121V50.4242H27.1515V48.4848Z" fill="#1E2429"/>
<path d="M32.9697 48.4848H31.0303V50.4242H32.9697V48.4848Z" fill="#1E2429"/>
<path d="M38.7879 48.4848H36.8485L36.8485 50.4242H38.7879V48.4848Z" fill="#1E2429"/>
<path d="M40.7273 48.4848H38.7879V50.4242H40.7273V48.4848Z" fill="#1E2429"/>
<path d="M44.6061 48.4848H42.6667V50.4242H44.6061V48.4848Z" fill="#1E2429"/>
<path d="M48.4848 48.4848H46.5455V50.4242H48.4848V48.4848Z" fill="#1E2429"/>
<path d="M56.2424 48.4848H54.303V50.4242H56.2424V48.4848Z" fill="#1E2429"/>
<path d="M58.1818 48.4848H56.2424V50.4242H58.1818V48.4848Z" fill="#1E2429"/>
<path d="M62.0606 48.4848H60.1212V50.4242H62.0606V48.4848Z" fill="#1E2429"/>
<path d="M64 48.4848H62.0606V50.4242H64V48.4848Z" fill="#1E2429"/>
<path d="M1.93939 50.4242C0.868297 50.4242 0 51.2925 0 52.3636H1.93939V50.4242Z" fill="#1E2429"/>
<path d="M3.87879 50.4242H1.93939V52.3636H3.87879V50.4242Z" fill="#1E2429"/>
<path d="M5.81818 50.4242H3.87879V52.3636H5.81818V50.4242Z" fill="#1E2429"/>
<path d="M7.75758 50.4242H5.81818V52.3636H7.75758V50.4242Z" fill="#1E2429"/>
<path d="M9.69697 50.4242H7.75758V52.3636H9.69697V50.4242Z" fill="#1E2429"/>
<path d="M11.6364 50.4242H9.69697V52.3636H11.6364V50.4242Z" fill="#1E2429"/>
<path d="M13.5758 52.3636C13.5758 51.2925 12.7075 50.4242 11.6364 50.4242V52.3636H13.5758Z" fill="#1E2429"/>
<path d="M17.4545 50.4242H15.5152V52.3636H17.4545V50.4242Z" fill="#1E2429"/>
<path d="M19.3939 50.4242H17.4545V52.3636H19.3939V50.4242Z" fill="#1E2429"/>
<path d="M23.2727 50.4242H21.3333V52.3636H23.2727V50.4242Z" fill="#1E2429"/>
<path d="M27.1515 50.4242H25.2121V52.3636H27.1515V50.4242Z" fill="#1E2429"/>
<path d="M29.0909 50.4242H27.1515V52.3636H29.0909V50.4242Z" fill="#1E2429"/>
<path d="M31.0303 50.4242H29.0909V52.3636H31.0303V50.4242Z" fill="#1E2429"/>
<path d="M34.9091 50.4242H32.9697V52.3636H34.9091V50.4242Z" fill="#1E2429"/>
<path d="M38.7879 50.4242H36.8485V52.3636H38.7879V50.4242Z" fill="#1E2429"/>
<path d="M42.6667 50.4242H40.7273V52.3636H42.6667V50.4242Z" fill="#1E2429"/>
<path d="M46.5455 50.4242H44.6061V52.3636H46.5455V50.4242Z" fill="#1E2429"/>
<path d="M48.4848 50.4242H46.5455V52.3636H48.4848V50.4242Z" fill="#1E2429"/>
<path d="M52.3636 50.4242H50.4242V52.3636H52.3636V50.4242Z" fill="#1E2429"/>
<path d="M56.2424 50.4242H54.303V52.3636H56.2424V50.4242Z" fill="#1E2429"/>
<path d="M60.1212 50.4242H58.1818V52.3636H60.1212V50.4242Z" fill="#1E2429"/>
<path d="M1.93939 52.3636H0V54.303H1.93939V52.3636Z" fill="#1E2429"/>
<path d="M13.5758 52.3636H11.6364V54.303H13.5758V52.3636Z" fill="#1E2429"/>
<path d="M17.4545 52.3636H15.5152V54.303H17.4545V52.3636Z" fill="#1E2429"/>
<path d="M21.3333 52.3636H19.3939V54.303H21.3333V52.3636Z" fill="#1E2429"/>
<path d="M23.2727 52.3636H21.3333V54.303H23.2727V52.3636Z" fill="#1E2429"/>
<path d="M25.2121 52.3636H23.2727V54.303H25.2121V52.3636Z" fill="#1E2429"/>
<path d="M29.0909 52.3636H27.1515V54.303H29.0909V52.3636Z" fill="#1E2429"/>
<path d="M32.9697 52.3636H31.0303V54.303H32.9697V52.3636Z" fill="#1E2429"/>
<path d="M36.8485 52.3636H34.9091V54.303H36.8485L36.8485 52.3636Z" fill="#1E2429"/>
<path d="M44.6061 52.3636H42.6667V54.303H44.6061V52.3636Z" fill="#1E2429"/>
<path d="M46.5455 52.3636H44.6061V54.303H46.5455V52.3636Z" fill="#1E2429"/>
<path d="M48.4848 52.3636H46.5455V54.303H48.4848V52.3636Z" fill="#1E2429"/>
<path d="M56.2424 52.3636H54.303V54.303H56.2424V52.3636Z" fill="#1E2429"/>
<path d="M58.1818 52.3636H56.2424V54.303H58.1818V52.3636Z" fill="#1E2429"/>
<path d="M62.0606 52.3636H60.1212V54.303H62.0606V52.3636Z" fill="#1E2429"/>
<path d="M64 52.3636H62.0606V54.303H64V52.3636Z" fill="#1E2429"/>
<path d="M1.93939 54.303H0V56.2424H1.93939V54.303Z" fill="#1E2429"/>
<path d="M5.81818 54.303H3.87879V56.2424H5.81818V54.303Z" fill="#1E2429"/>
<path d="M7.75758 54.303H5.81818V56.2424H7.75758V54.303Z" fill="#1E2429"/>
<path d="M9.69697 54.303H7.75758V56.2424H9.69697V54.303Z" fill="#1E2429"/>
<path d="M13.5758 54.303H11.6364V56.2424H13.5758V54.303Z" fill="#1E2429"/>
<path d="M17.4545 54.303H15.5152V56.2424H17.4545V54.303Z" fill="#1E2429"/>
<path d="M23.2727 54.303H21.3333V56.2424H23.2727V54.303Z" fill="#1E2429"/>
<path d="M25.2121 54.303H23.2727V56.2424H25.2121V54.303Z" fill="#1E2429"/>
<path d="M29.0909 54.303H27.1515V56.2424H29.0909V54.303Z" fill="#1E2429"/>
<path d="M32.9697 54.303H31.0303V56.2424H32.9697V54.303Z" fill="#1E2429"/>
<path d="M36.8485 54.303H34.9091V56.2424H36.8485V54.303Z" fill="#1E2429"/>
<path d="M40.7273 54.303H38.7879V56.2424H40.7273V54.303Z" fill="#1E2429"/>
<path d="M44.6061 54.303H42.6667V56.2424H44.6061V54.303Z" fill="#1E2429"/>
<path d="M48.4848 54.303H46.5455V56.2424H48.4848V54.303Z" fill="#1E2429"/>
<path d="M50.4242 54.303H48.4848V56.2424H50.4242V54.303Z" fill="#1E2429"/>
<path d="M52.3636 54.303H50.4242V56.2424H52.3636V54.303Z" fill="#1E2429"/>
<path d="M54.303 54.303H52.3636V56.2424H54.303V54.303Z" fill="#1E2429"/>
<path d="M56.2424 54.303H54.303V56.2424H56.2424V54.303Z" fill="#1E2429"/>
<path d="M58.1818 54.303H56.2424V56.2424H58.1818V54.303Z" fill="#1E2429"/>
<path d="M62.0606 54.303H60.1212V56.2424H62.0606V54.303Z" fill="#1E2429"/>
<path d="M64 54.303H62.0606V56.2424H64V54.303Z" fill="#1E2429"/>
<path d="M1.93939 56.2424H0V58.1818H1.93939V56.2424Z" fill="#1E2429"/>
<path d="M5.81818 56.2424H3.87879V58.1818H5.81818V56.2424Z" fill="#1E2429"/>
<path d="M7.75758 56.2424H5.81818V58.1818H7.75758V56.2424Z" fill="#1E2429"/>
<path d="M9.69697 56.2424H7.75758V58.1818H9.69697V56.2424Z" fill="#1E2429"/>
<path d="M13.5758 56.2424H11.6364V58.1818H13.5758V56.2424Z" fill="#1E2429"/>
<path d="M17.4545 56.2424H15.5152V58.1818H17.4545V56.2424Z" fill="#1E2429"/>
<path d="M23.2727 56.2424H21.3333V58.1818H23.2727V56.2424Z" fill="#1E2429"/>
<path d="M31.0303 56.2424H29.0909V58.1818H31.0303V56.2424Z" fill="#1E2429"/>
<path d="M32.9697 56.2424H31.0303V58.1818H32.9697V56.2424Z" fill="#1E2429"/>
<path d="M34.9091 56.2424H32.9697V58.1818H34.9091V56.2424Z" fill="#1E2429"/>
<path d="M38.7879 56.2424H36.8485L36.8485 58.1818H38.7879V56.2424Z" fill="#1E2429"/>
<path d="M42.6667 56.2424H40.7273V58.1818H42.6667V56.2424Z" fill="#1E2429"/>
<path d="M46.5455 56.2424H44.6061V58.1818H46.5455V56.2424Z" fill="#1E2429"/>
<path d="M54.303 56.2424H52.3636V58.1818H54.303V56.2424Z" fill="#1E2429"/>
<path d="M62.0606 56.2424H60.1212V58.1818H62.0606V56.2424Z" fill="#1E2429"/>
<path d="M1.93939 58.1818H0V60.1212H1.93939V58.1818Z" fill="#1E2429"/>
<path d="M5.81818 58.1818H3.87879V60.1212H5.81818V58.1818Z" fill="#1E2429"/>
<path d="M7.75758 58.1818H5.81818V60.1212H7.75758V58.1818Z" fill="#1E2429"/>
<path d="M9.69697 58.1818H7.75758V60.1212H9.69697V58.1818Z" fill="#1E2429"/>
<path d="M13.5758 58.1818H11.6364V60.1212H13.5758V58.1818Z" fill="#1E2429"/>
<path d="M17.4545 58.1818H15.5152V60.1212H17.4545V58.1818Z" fill="#1E2429"/>
<path d="M21.3333 58.1818H19.3939V60.1212H21.3333V58.1818Z" fill="#1E2429"/>
<path d="M23.2727 58.1818H21.3333V60.1212H23.2727V58.1818Z" fill="#1E2429"/>
<path d="M27.1515 58.1818H25.2121V60.1212H27.1515V58.1818Z" fill="#1E2429"/>
<path d="M31.0303 58.1818H29.0909V60.1212H31.0303V58.1818Z" fill="#1E2429"/>
<path d="M34.9091 58.1818H32.9697V60.1212H34.9091V58.1818Z" fill="#1E2429"/>
<path d="M38.7879 58.1818H36.8485V60.1212H38.7879V58.1818Z" fill="#1E2429"/>
<path d="M42.6667 58.1818H40.7273V60.1212H42.6667V58.1818Z" fill="#1E2429"/>
<path d="M44.6061 58.1818H42.6667V60.1212H44.6061V58.1818Z" fill="#1E2429"/>
<path d="M46.5455 58.1818H44.6061V60.1212H46.5455V58.1818Z" fill="#1E2429"/>
<path d="M52.3636 58.1818H50.4242V60.1212H52.3636V58.1818Z" fill="#1E2429"/>
<path d="M54.303 58.1818H52.3636V60.1212H54.303V58.1818Z" fill="#1E2429"/>
<path d="M60.1212 58.1818H58.1818V60.1212H60.1212V58.1818Z" fill="#1E2429"/>
<path d="M62.0606 58.1818H60.1212V60.1212H62.0606V58.1818Z" fill="#1E2429"/>
<path d="M1.93939 60.1212H0V62.0606H1.93939V60.1212Z" fill="#1E2429"/>
<path d="M13.5758 60.1212H11.6364V62.0606H13.5758V60.1212Z" fill="#1E2429"/>
<path d="M19.3939 60.1212H17.4545V62.0606H19.3939V60.1212Z" fill="#1E2429"/>
<path d="M21.3333 60.1212H19.3939V62.0606H21.3333V60.1212Z" fill="#1E2429"/>
<path d="M25.2121 60.1212H23.2727V62.0606H25.2121V60.1212Z" fill="#1E2429"/>
<path d="M29.0909 60.1212H27.1515V62.0606H29.0909V60.1212Z" fill="#1E2429"/>
<path d="M32.9697 60.1212H31.0303V62.0606H32.9697V60.1212Z" fill="#1E2429"/>
<path d="M36.8485 60.1212H34.9091V62.0606H36.8485L36.8485 60.1212Z" fill="#1E2429"/>
<path d="M40.7273 60.1212H38.7879V62.0606H40.7273V60.1212Z" fill="#1E2429"/>
<path d="M44.6061 60.1212H42.6667V62.0606H44.6061V60.1212Z" fill="#1E2429"/>
<path d="M46.5455 60.1212H44.6061V62.0606H46.5455V60.1212Z" fill="#1E2429"/>
<path d="M52.3636 60.1212H50.4242V62.0606H52.3636V60.1212Z" fill="#1E2429"/>
<path d="M54.303 60.1212H52.3636V62.0606H54.303V60.1212Z" fill="#1E2429"/>
<path d="M56.2424 60.1212H54.303V62.0606H56.2424V60.1212Z" fill="#1E2429"/>
<path d="M58.1818 60.1212H56.2424V62.0606H58.1818V60.1212Z" fill="#1E2429"/>
<path d="M64 60.1212H62.0606V62.0606H64V60.1212Z" fill="#1E2429"/>
<path d="M1.93939 62.0606H0C0 63.1317 0.868297 64 1.93939 64V62.0606Z" fill="#1E2429"/>
<path d="M3.87879 62.0606H1.93939V64H3.87879V62.0606Z" fill="#1E2429"/>
<path d="M5.81818 62.0606H3.87879V64H5.81818V62.0606Z" fill="#1E2429"/>
<path d="M7.75758 62.0606H5.81818V64H7.75758V62.0606Z" fill="#1E2429"/>
<path d="M9.69697 62.0606H7.75758V64H9.69697V62.0606Z" fill="#1E2429"/>
<path d="M11.6364 62.0606H9.69697V64H11.6364V62.0606Z" fill="#1E2429"/>
<path d="M13.5758 62.0606H11.6364V64C12.7075 64 13.5758 63.1317 13.5758 62.0606Z" fill="#1E2429"/>
<path d="M19.3939 62.0606H17.4545V64H19.3939V62.0606Z" fill="#1E2429"/>
<path d="M27.1515 62.0606H25.2121V64H27.1515V62.0606Z" fill="#1E2429"/>
<path d="M31.0303 62.0606H29.0909V64H31.0303V62.0606Z" fill="#1E2429"/>
<path d="M34.9091 62.0606H32.9697V64H34.9091V62.0606Z" fill="#1E2429"/>
<path d="M38.7879 62.0606H36.8485L36.8485 64H38.7879V62.0606Z" fill="#1E2429"/>
<path d="M42.6667 62.0606H40.7273V64H42.6667V62.0606Z" fill="#1E2429"/>
<path d="M50.4242 62.0606H48.4848V64H50.4242V62.0606Z" fill="#1E2429"/>
<path d="M54.303 62.0606H52.3636V64H54.303V62.0606Z" fill="#1E2429"/>
<path d="M58.1818 62.0606H56.2424V64H58.1818V62.0606Z" fill="#1E2429"/>
</svg>
